<svg width="1024" height="1024" viewBox="0 0 1024 1024" fill="none" xmlns="http://www.w3.org/2000/svg">
<g clip-path="url(#clip0_1443_38)">
<path d="M512 567.44C503.248 567.44 494.854 570.917 488.666 577.106C482.477 583.294 479 591.688 479 600.44V847.94C479 856.692 482.477 865.086 488.666 871.275C494.854 877.463 503.248 880.94 512 880.94C520.752 880.94 529.146 877.463 535.335 871.275C541.523 865.086 545 856.692 545 847.94V600.44C545 591.688 541.523 583.294 535.335 577.106C529.146 570.917 520.752 567.44 512 567.44ZM363.5 517.94C354.748 517.94 346.354 521.417 340.166 527.606C333.977 533.794 330.5 542.188 330.5 550.94V732.44C330.5 741.192 333.977 749.586 340.166 755.775C346.354 761.963 354.748 765.44 363.5 765.44C372.252 765.44 380.646 761.963 386.835 755.775C393.023 749.586 396.5 741.192 396.5 732.44V550.94C396.5 542.188 393.023 533.794 386.835 527.606C380.646 521.417 372.252 517.94 363.5 517.94ZM660.5 517.94C651.748 517.94 643.354 521.417 637.166 527.606C630.977 533.794 627.5 542.188 627.5 550.94V732.44C627.5 741.192 630.977 749.586 637.166 755.775C643.354 761.963 651.748 765.44 660.5 765.44C669.252 765.44 677.646 761.963 683.835 755.775C690.023 749.586 693.5 741.192 693.5 732.44V550.94C693.5 542.188 690.023 533.794 683.835 527.606C677.646 521.417 669.252 517.94 660.5 517.94ZM187.61 149C180.118 145.259 171.8 143.479 163.433 143.828C155.066 144.177 146.924 146.643 139.77 150.995C132.615 155.347 126.682 161.443 122.525 168.712C118.368 175.982 116.123 184.187 116 192.56V215C115.832 224.989 118.71 234.792 124.251 243.104C129.793 251.417 137.735 257.844 147.02 261.53L180.02 275.06C171.332 282.357 165.587 292.558 163.85 303.77C162.728 310.444 162.969 317.276 164.557 323.855C166.144 330.434 169.047 336.623 173.09 342.05L198.17 375.05C202.78 381.176 208.766 386.13 215.646 389.513C222.525 392.895 230.105 394.61 237.77 394.52C243.847 394.651 249.89 393.582 255.553 391.373C261.215 389.165 266.387 385.861 270.77 381.65L293.87 351.62C296.224 348.86 297.512 345.348 297.5 341.72V221.6C297.552 218.707 296.811 215.855 295.357 213.353C293.902 210.852 291.79 208.796 289.25 207.41L187.61 149ZM689.87 242.39C688.829 241.748 687.629 241.407 686.405 241.407C685.181 241.407 683.982 241.748 682.94 242.39L545 328.85C535.087 334.986 523.659 338.237 512 338.237C500.341 338.237 488.914 334.986 479 328.85L341.06 242.39C340.016 241.848 338.856 241.567 337.679 241.572C336.503 241.578 335.345 241.869 334.306 242.421C333.267 242.973 332.378 243.769 331.715 244.741C331.052 245.713 330.635 246.831 330.5 248V413C330.5 424.146 334.905 434.84 342.755 442.752C350.605 450.664 361.265 455.153 372.41 455.24H651.59C662.736 455.153 673.395 450.664 681.245 442.752C689.096 434.84 693.5 424.146 693.5 413V248C693.449 246.827 693.086 245.688 692.448 244.702C691.809 243.716 690.92 242.918 689.87 242.39Z" fill="url(#paint0_linear_1443_38)"/>
<path d="M651.59 143.061H372.41C361.294 143.061 350.634 147.476 342.775 155.336C334.915 163.195 330.5 173.855 330.5 184.971C330.297 185.615 330.297 186.306 330.5 186.951L499.79 293.211C503.152 295.319 507.041 296.437 511.01 296.437C514.979 296.437 518.867 295.319 522.23 293.211L691.52 186.621C691.664 186.37 691.741 186.085 691.741 185.796C691.741 185.506 691.664 185.221 691.52 184.971C691.532 174.19 687.389 163.82 679.953 156.014C672.516 148.209 662.358 143.57 651.59 143.061ZM884.57 149.001C877.063 144.78 868.596 142.562 859.985 142.562C851.373 142.562 842.906 144.78 835.4 149.001L734.75 207.411C732.21 208.797 730.098 210.852 728.643 213.354C727.189 215.855 726.448 218.707 726.5 221.601V341.721C726.488 345.348 727.776 348.86 730.13 351.621L753.23 381.651C762.178 390.004 773.988 394.61 786.23 394.521C793.895 394.611 801.474 392.895 808.354 389.513C815.233 386.131 821.22 381.176 825.83 375.051L851.24 342.051C855.182 336.64 858.002 330.494 859.532 323.977C861.062 317.459 861.272 310.701 860.15 304.101C858.413 292.889 852.668 282.688 843.98 275.391L876.98 261.861C886.318 258.155 894.298 251.677 899.844 243.299C905.39 234.921 908.236 225.045 908 215.001V191.901C908.109 183.339 906.01 174.895 901.906 167.38C897.802 159.866 891.832 153.536 884.57 149.001Z" fill="url(#paint1_linear_1443_38)"/>
</g>
<defs>
<linearGradient id="paint0_linear_1443_38" x1="404.747" y1="143.785" x2="404.747" y2="880.94" gradientUnits="userSpaceOnUse">
<stop offset="0.197112" stop-color="white"/>
<stop offset="0.51449" stop-color="#808080"/>
<stop offset="0.788497"/>
</linearGradient>
<linearGradient id="paint1_linear_1443_38" x1="619.18" y1="142.562" x2="619.18" y2="394.524" gradientUnits="userSpaceOnUse">
<stop offset="0.197112" stop-color="white"/>
<stop offset="0.51449" stop-color="#808080"/>
<stop offset="0.788497"/>
</linearGradient>
<clipPath id="clip0_1443_38">
<rect width="792" height="792" fill="white" transform="translate(116 116)"/>
</clipPath>
</defs>
</svg>
